<svg width="179" height="27" viewBox="0 0 179 27" fill="none" xmlns="http://www.w3.org/2000/svg">
<path d="M57.3856 13.5863C57.3856 14.4339 57.3493 15.0998 57.2766 15.5841H44.5632C44.9991 17.9331 46.4642 19.1076 48.9584 19.1076C50.2661 19.1076 51.1863 18.7806 51.719 18.1268H56.986C56.4048 19.7493 55.3878 21.0206 53.9348 21.9408C52.5061 22.8368 50.8352 23.2848 48.9221 23.2848C46.1857 23.2848 43.9578 22.4251 42.2385 20.7058C40.5434 18.9865 39.6958 16.8191 39.6958 14.2038C39.6958 11.5885 40.5313 9.42116 42.2022 7.70182C43.8731 5.95827 46.0162 5.0865 48.6315 5.0865C51.1984 5.0865 53.2931 5.87351 54.9156 7.44755C56.5622 8.99738 57.3856 11.0436 57.3856 13.5863ZM48.6678 9.11846C46.5126 9.11846 45.1807 10.1961 44.6722 12.3513H52.5545C52.3123 10.1961 51.0168 9.11846 48.6678 9.11846Z" fill="black"/>
<path d="M74.9162 5.0865C77.2409 5.0865 79.0934 5.8493 80.4737 7.37491C81.8783 8.8763 82.5805 10.8983 82.5805 13.441V22.8489H77.8221V13.7316C77.8221 12.3271 77.4831 11.2616 76.805 10.5351C76.127 9.7844 75.1583 9.40905 73.8991 9.40905C72.4946 9.40905 71.1627 10.1476 69.9035 11.6248V22.8489H65.145V5.52238H69.9035V6.83005C71.3564 5.66768 73.0273 5.0865 74.9162 5.0865Z" fill="black"/>
<path d="M94.4451 16.8555C94.7115 18.5748 95.9586 19.4345 98.1865 19.4345C100.245 19.4345 101.274 18.9502 101.274 17.9815C101.274 17.2066 100.681 16.7102 99.4942 16.4922L95.7528 15.8384C94.2756 15.5962 93.0527 15.0635 92.0841 14.2401C91.1154 13.4168 90.6311 12.2544 90.6311 10.753C90.6311 8.98527 91.3092 7.59285 92.6652 6.57578C94.0213 5.55871 95.8133 5.05017 98.0412 5.05017C102.836 5.05017 105.391 6.99956 105.706 10.8983H101.31C101.213 9.51802 100.124 8.82787 98.0412 8.82787C96.2492 8.82787 95.3532 9.31219 95.3532 10.2808C95.3532 11.1768 96.0676 11.7459 97.4963 11.9881L100.62 12.4966C104.083 13.102 105.815 14.785 105.815 17.5456C105.815 19.4103 105.1 20.839 103.671 21.8319C102.243 22.8005 100.378 23.2848 98.0775 23.2848C97.0605 23.2848 96.116 23.1758 95.2443 22.9579C94.3725 22.7642 93.5491 22.4373 92.7742 21.9771C91.9993 21.4928 91.3697 20.8148 90.8854 19.943C90.4253 19.0712 90.1468 18.0299 90.0499 16.8191L94.4451 16.8555Z" fill="black"/>
<path d="M126.388 5.52238H131.437L123.518 22.8489H119.377L111.458 5.52238H116.507L121.447 16.7465L126.388 5.52238Z" fill="black"/>
<path d="M154.032 13.5863C154.032 14.4339 153.995 15.0998 153.923 15.5841H141.209C141.645 17.9331 143.11 19.1076 145.604 19.1076C146.912 19.1076 147.832 18.7806 148.365 18.1268H153.632C153.051 19.7493 152.034 21.0206 150.581 21.9408C149.152 22.8368 147.481 23.2848 145.568 23.2848C142.832 23.2848 140.604 22.4251 138.884 20.7058C137.189 18.9865 136.342 16.8191 136.342 14.2038C136.342 11.5885 137.177 9.42116 138.848 7.70182C140.519 5.95827 142.662 5.0865 145.277 5.0865C147.844 5.0865 149.939 5.87351 151.561 7.44755C153.208 8.99738 154.032 11.0436 154.032 13.5863ZM145.314 9.11846C143.159 9.11846 141.827 10.1961 141.318 12.3513H149.2C148.958 10.1961 147.663 9.11846 145.314 9.11846Z" fill="black"/>
<path d="M179 13.5863C179 14.4339 178.964 15.0998 178.891 15.5841H166.178C166.614 17.9331 168.079 19.1076 170.573 19.1076C171.88 19.1076 172.801 18.7806 173.333 18.1268H178.6C178.019 19.7493 177.002 21.0206 175.549 21.9408C174.12 22.8368 172.45 23.2848 170.536 23.2848C167.8 23.2848 165.572 22.4251 163.853 20.7058C162.158 18.9865 161.31 16.8191 161.31 14.2038C161.31 11.5885 162.146 9.42116 163.817 7.70182C165.487 5.95827 167.631 5.0865 170.246 5.0865C172.813 5.0865 174.907 5.87351 176.53 7.44755C178.177 8.99738 179 11.0436 179 13.5863ZM170.282 9.11846C168.127 9.11846 166.795 10.1961 166.287 12.3513H174.169C173.927 10.1961 172.631 9.11846 170.282 9.11846Z" fill="black"/>
<circle cx="13.019" cy="14.6781" r="12.2719" fill="url(#paint0_linear_1_5)"/>
<circle cx="13.0189" cy="14.6782" r="8.90314" fill="white"/>
<rect x="12.7783" y="1.44373" width="12.9938" height="12.9938" fill="white"/>
<path d="M9.648 10.7052C12.7572 8.04555 20.3034 4.11697 27.2157 0C23.0395 7.44061 19.4947 16.4044 16.4409 18.734C14.7231 19.9505 10.7255 21.5563 8.47682 18.2474C6.22816 14.9386 8.32066 11.8405 9.648 10.7052Z" fill="#EE33AA"/>
<path d="M9.648 10.7052C12.7572 8.04555 20.3034 4.11697 27.2157 0C23.0395 7.44061 19.4947 16.4044 16.4409 18.734C14.7231 19.9505 10.7255 21.5563 8.47682 18.2474C6.22816 14.9386 8.32066 11.8405 9.648 10.7052Z" fill="#44D5BA"/>
<path d="M11.6979 12.9955C12.4647 12.3152 15.7491 10.2887 18.5535 8.66248C16.9927 11.8869 15.2454 15.5867 14.3487 16.2453C13.6784 16.7377 12.1183 17.3876 11.2408 16.0483C10.3633 14.709 11.1799 13.4551 11.6979 12.9955Z" fill="#EE33AA"/>
<path d="M11.6979 12.9955C12.4647 12.3152 15.7491 10.2887 18.5535 8.66248C16.9927 11.8869 15.2454 15.5867 14.3487 16.2453C13.6784 16.7377 12.1183 17.3876 11.2408 16.0483C10.3633 14.709 11.1799 13.4551 11.6979 12.9955Z" fill="white"/>
<defs>
<linearGradient id="paint0_linear_1_5" x1="25.2909" y1="14.6781" x2="0.74707" y2="14.6781" gradientUnits="userSpaceOnUse">
<stop stop-color="#44D7B6"/>
<stop offset="1" stop-color="#3BB0EA"/>
</linearGradient>
</defs>
</svg>
