<svg width="153" height="23" viewBox="0 0 153 23" fill="none" xmlns="http://www.w3.org/2000/svg">
<path d="M48.3372 11.595C48.3372 12.3183 48.3062 12.8867 48.2442 13.3H37.3942C37.7662 15.3047 39.0166 16.307 41.1452 16.307C42.2612 16.307 43.0466 16.028 43.5012 15.47H47.9962C47.5002 16.8547 46.6322 17.9397 45.3922 18.725C44.1729 19.4897 42.7469 19.872 41.1142 19.872C38.7789 19.872 36.8776 19.1383 35.4102 17.671C33.9636 16.2037 33.2402 14.354 33.2402 12.122C33.2402 9.89 33.9532 8.04033 35.3792 6.573C36.8052 5.085 38.6342 4.341 40.8662 4.341C43.0569 4.341 44.8446 5.01266 46.2292 6.356C47.6346 7.67866 48.3372 9.425 48.3372 11.595ZM40.8972 7.782C39.0579 7.782 37.9212 8.70167 37.4872 10.541H44.2142C44.0076 8.70167 42.9019 7.782 40.8972 7.782Z" fill="white"/>
<path d="M63.2984 4.341C65.2824 4.341 66.8634 4.992 68.0414 6.294C69.24 7.57533 69.8394 9.301 69.8394 11.471V19.5H65.7784V11.719C65.7784 10.5203 65.489 9.611 64.9104 8.991C64.3317 8.35033 63.505 8.03 62.4304 8.03C61.2317 8.03 60.095 8.66033 59.0204 9.921V19.5H54.9594V4.713H59.0204V5.829C60.2604 4.837 61.6864 4.341 63.2984 4.341Z" fill="white"/>
<path d="M79.965 14.385C80.1923 15.8523 81.2566 16.586 83.158 16.586C84.9146 16.586 85.793 16.1727 85.793 15.346C85.793 14.6847 85.2866 14.261 84.274 14.075L81.081 13.517C79.8203 13.3103 78.7766 12.8557 77.95 12.153C77.1233 11.4503 76.71 10.4583 76.71 9.177C76.71 7.66833 77.2886 6.48 78.446 5.612C79.6033 4.744 81.1326 4.31 83.034 4.31C87.126 4.31 89.3063 5.97366 89.575 9.301H85.824C85.7413 8.123 84.8113 7.534 83.034 7.534C81.5047 7.534 80.74 7.94733 80.74 8.774C80.74 9.53867 81.3496 10.0243 82.569 10.231L85.235 10.665C88.1903 11.1817 89.668 12.618 89.668 14.974C89.668 16.5653 89.0583 17.7847 87.839 18.632C86.6196 19.4587 85.0283 19.872 83.065 19.872C82.197 19.872 81.391 19.779 80.647 19.593C79.903 19.4277 79.2003 19.1487 78.539 18.756C77.8776 18.3427 77.3403 17.764 76.927 17.02C76.5343 16.276 76.2966 15.3873 76.214 14.354L79.965 14.385Z" fill="white"/>
<path d="M107.226 4.713H111.535L104.777 19.5H101.243L94.4846 4.713H98.7936L103.01 14.292L107.226 4.713Z" fill="white"/>
<path d="M130.818 11.595C130.818 12.3183 130.787 12.8867 130.725 13.3H119.875C120.247 15.3047 121.497 16.307 123.626 16.307C124.742 16.307 125.527 16.028 125.982 15.47H130.477C129.981 16.8547 129.113 17.9397 127.873 18.725C126.653 19.4897 125.227 19.872 123.595 19.872C121.259 19.872 119.358 19.1383 117.891 17.671C116.444 16.2037 115.721 14.354 115.721 12.122C115.721 9.89 116.434 8.04033 117.86 6.573C119.286 5.085 121.115 4.341 123.347 4.341C125.537 4.341 127.325 5.01266 128.71 6.356C130.115 7.67866 130.818 9.425 130.818 11.595ZM123.378 7.782C121.538 7.782 120.402 8.70167 119.968 10.541H126.695C126.488 8.70167 125.382 7.782 123.378 7.782Z" fill="white"/>
<path d="M152.127 11.595C152.127 12.3183 152.096 12.8867 152.034 13.3H141.184C141.556 15.3047 142.806 16.307 144.935 16.307C146.051 16.307 146.836 16.028 147.291 15.47H151.786C151.29 16.8547 150.422 17.9397 149.182 18.725C147.962 19.4897 146.536 19.872 144.904 19.872C142.568 19.872 140.667 19.1383 139.2 17.671C137.753 16.2037 137.03 14.354 137.03 12.122C137.03 9.89 137.743 8.04033 139.169 6.573C140.595 5.085 142.424 4.341 144.656 4.341C146.846 4.341 148.634 5.01266 150.019 6.356C151.424 7.67866 152.127 9.425 152.127 11.595ZM144.687 7.782C142.847 7.782 141.711 8.70167 141.277 10.541H148.004C147.797 8.70167 146.691 7.782 144.687 7.782Z" fill="white"/>
<circle cx="10.4732" cy="12.5268" r="10.4732" fill="url(#paint0_linear_1_32)"/>
<circle cx="10.4732" cy="12.5268" r="7.59821" fill="#232D4C"/>
<rect x="10.2681" y="1.23215" width="11.0893" height="11.0893" fill="#232D4C"/>
<path d="M7.5965 9.1361C10.25 6.86632 16.6902 3.51355 22.5893 0C19.0252 6.35005 16 14 13.3937 15.9882C11.9278 17.0264 8.51606 18.3968 6.59698 15.5729C4.67791 12.749 6.46371 10.1051 7.5965 9.1361Z" fill="#EE33AA"/>
<path d="M7.5965 9.1361C10.25 6.86632 16.6902 3.51355 22.5893 0C19.0252 6.35005 16 14 13.3937 15.9882C11.9278 17.0264 8.51606 18.3968 6.59698 15.5729C4.67791 12.749 6.46371 10.1051 7.5965 9.1361Z" fill="#44D5BA"/>
<path d="M9.34559 11.0908C10 10.5102 12.8031 8.78073 15.1964 7.39284C13.8643 10.1447 12.3731 13.3022 11.6079 13.8642C11.0358 14.2845 9.70444 14.8392 8.95553 13.6962C8.20662 12.5532 8.90352 11.483 9.34559 11.0908Z" fill="#EE33AA"/>
<path d="M9.34559 11.0908C10 10.5102 12.8031 8.78073 15.1964 7.39284C13.8643 10.1447 12.3731 13.3022 11.6079 13.8642C11.0358 14.2845 9.70444 14.8392 8.95553 13.6962C8.20662 12.5532 8.90352 11.483 9.34559 11.0908Z" fill="#232D4C"/>
<defs>
<linearGradient id="paint0_linear_1_32" x1="20.9464" y1="12.5268" x2="0" y2="12.5268" gradientUnits="userSpaceOnUse">
<stop stop-color="#44D7B6"/>
<stop offset="1" stop-color="#3BB0EA"/>
</linearGradient>
</defs>
</svg>
