<svg width="45" height="45" viewBox="0 0 45 45" fill="none" xmlns="http://www.w3.org/2000/svg">
<rect width="45" height="45" rx="5" fill="white"/>
<circle cx="21.2432" cy="23.7226" r="12.2774" fill="url(#paint0_linear_948_254)"/>
<circle cx="21.2431" cy="23.7226" r="8.90715" fill="white"/>
<rect x="21.0024" y="10.4822" width="12.9996" height="12.9996" fill="white"/>
<path d="M17.8709 19.7478C20.9815 17.087 28.5311 13.1567 35.4465 9.03784C31.2684 16.4818 27.722 25.4496 24.6668 27.7803C22.9483 28.9973 18.9489 30.6038 16.6992 27.2935C14.4495 23.9831 16.543 20.8837 17.8709 19.7478Z" fill="#EE33AA"/>
<path d="M17.8709 19.7478C20.9815 17.087 28.5311 13.1567 35.4465 9.03784C31.2684 16.4818 27.722 25.4496 24.6668 27.7803C22.9483 28.9973 18.9489 30.6038 16.6992 27.2935C14.4495 23.9831 16.543 20.8837 17.8709 19.7478Z" fill="#44D5BA"/>
<path d="M19.9214 22.0392C20.6885 21.3586 23.9745 19.3312 26.7801 17.7043C25.2186 20.9301 23.4705 24.6316 22.5734 25.2905C21.9028 25.7831 20.3421 26.4333 19.4641 25.0934C18.5862 23.7535 19.4032 22.499 19.9214 22.0392Z" fill="#EE33AA"/>
<path d="M19.9214 22.0392C20.6885 21.3586 23.9745 19.3312 26.7801 17.7043C25.2186 20.9301 23.4705 24.6316 22.5734 25.2905C21.9028 25.7831 20.3421 26.4333 19.4641 25.0934C18.5862 23.7535 19.4032 22.499 19.9214 22.0392Z" fill="white"/>
<defs>
<linearGradient id="paint0_linear_948_254" x1="33.5207" y1="23.7226" x2="8.96582" y2="23.7226" gradientUnits="userSpaceOnUse">
<stop stop-color="#44D7B6"/>
<stop offset="1" stop-color="#3BB0EA"/>
</linearGradient>
</defs>
</svg>
